<svg xmlns="http://www.w3.org/2000/svg" xmlns:v="https://svgstorm.com"
viewBox = "0 0 300 300"
width="300"
height="300">
<g fill="None" fill-opacity="0.0" stroke="#FCFCFC" stroke-opacity="1.00" stroke-width="0.3"><path d="
M 0.00 300.00 
L 300.00 300.00
L 300.00 0.00
L 0.00 0.00
L 0.00 300.00
M 30.00 57.00 
C 38.34 56.60 46.60 64.25 45.00 73.00
C 36.26 74.41 38.23 59.42 26.98 62.02 C 19.93 59.98 5.35 66.98 15.23 73.77 C 23.21 75.95 31.61 76.56 39.22 79.78 C 59.22 92.60 31.51 110.04 16.93 102.07 C 8.93 101.31 2.50 93.14 4.00 85.00
C 5.03 83.57 9.04 83.31 10.00 85.00
C 8.28 100.34 38.19 102.25 40.00 89.00 C 32.80 78.22 11.69 85.95 6.00 72.00
C 4.57 70.97 4.31 66.96 6.00 66.00
C 6.91 59.59 14.12 56.57 20.00 57.00
C 22.28 55.46 27.79 55.28 30.00 57.00
M 53.00 56.00 
C 55.87 58.55 56.65 66.90 50.99 65.99 C 47.49 63.98 47.81 55.52 53.00 56.00
M 232.00 57.00 
C 240.48 56.61 248.41 64.49 248.00 73.00
C 238.86 76.01 241.72 60.57 232.00 63.00
C 228.67 63.00 225.33 63.00 222.00 63.00
C 207.60 62.88 216.83 78.68 227.01 75.99 C 234.97 77.87 246.44 78.38 248.92 88.08 C 249.28 108.41 211.06 108.46 207.00 91.00
C 205.13 89.86 206.39 86.87 206.00 85.00
C 207.45 83.04 210.80 84.44 213.00 84.00
C 213.00 85.33 213.00 86.67 213.00 88.00
C 214.28 99.98 234.81 99.76 241.75 92.75 C 242.60 78.91 222.48 84.51 214.31 78.69 C 201.73 73.49 209.45 54.55 222.00 57.00
C 224.28 55.46 229.79 55.28 232.00 57.00
M 296.00 103.00 
C 287.15 105.46 285.88 94.73 283.00 89.00
C 275.22 89.80 266.34 87.38 259.26 90.26 C 256.07 95.77 254.87 105.62 246.00 103.00
C 254.77 88.13 260.12 69.39 271.03 57.03 C 278.97 59.73 279.56 71.84 284.77 78.23 C 287.32 86.95 293.25 94.38 296.00 103.00
M 69.00 70.00 
C 72.67 70.00 76.33 70.00 80.00 70.00
C 80.00 67.00 80.00 64.00 80.00 61.00
C 81.88 61.47 84.93 59.94 86.00 62.00
C 88.03 63.77 86.53 67.48 87.00 70.00
C 88.88 70.47 91.93 68.94 93.00 71.00
C 93.00 72.67 93.00 74.33 93.00 76.00
C 91.00 76.00 89.00 76.00 87.00 76.00
C 87.06 76.01 87.00 77.00 87.00 77.00
C 88.88 77.47 91.93 75.94 93.00 78.00
C 100.75 65.03 122.98 66.17 129.00 80.00
C 129.00 76.67 129.00 73.33 129.00 70.00
C 130.45 68.04 133.80 69.44 136.00 69.00
C 142.82 64.25 150.10 65.41 156.00 71.00
C 164.53 66.49 179.68 68.63 181.00 80.00
C 183.95 82.27 179.51 85.09 177.00 84.00
C 177.57 84.94 178.15 85.82 178.00 87.00
C 178.80 87.13 179.11 88.09 180.00 88.00
C 187.36 88.03 195.48 96.29 204.00 97.00
C 196.36 106.60 215.97 107.61 219.00 114.00
C 210.70 117.06 204.29 114.73 197.77 109.23 C 191.32 102.10 180.84 105.17 173.00 103.00
C 172.52 103.09 171.50 103.00 171.00 103.00
C 170.77 103.34 171.00 104.00 171.00 104.00
C 154.68 105.77 136.86 105.01 120.00 106.00 C 103.50 101.75 92.38 112.88 80.00 120.00
C 113.12 122.07 148.50 121.09 182.00 120.00
C 172.22 134.08 150.11 123.92 135.00 127.00 C 116.75 126.31 99.26 128.69 81.00 128.00 C 68.92 125.54 76.50 141.15 73.22 147.22 C 61.23 152.48 64.05 137.33 64.00 130.00
C 59.43 128.98 53.70 129.80 50.00 127.00
C 59.30 121.41 67.64 114.44 77.00 109.00
C 75.79 106.52 74.31 103.36 79.00 104.00
C 79.66 95.17 77.67 85.01 80.00 77.00
C 77.24 74.84 72.51 76.55 69.00 76.00
C 67.21 84.37 72.72 97.89 65.97 102.97 C 57.42 99.61 64.13 84.18 62.00 76.00
C 48.71 75.02 57.55 94.64 55.00 103.00
C 45.76 105.56 49.86 94.33 49.00 89.00 C 49.00 82.00 49.00 75.00 49.00 68.00
C 50.99 68.45 55.23 66.64 55.00 70.00
C 57.33 70.00 59.67 70.00 62.00 70.00
C 58.06 58.76 72.92 58.76 69.00 70.00
M 252.00 219.00 
C 253.96 220.45 252.56 223.80 253.00 226.00
C 257.11 230.34 266.21 234.28 264.00 243.00
C 250.67 243.00 237.33 243.00 224.00 243.00
C 219.58 245.25 213.18 243.39 208.00 244.00
C 197.33 244.00 186.67 244.00 176.00 244.00
C 162.04 244.42 148.49 242.98 135.93 238.07 C 122.98 241.16 109.81 243.98 96.00 244.00
C 77.33 244.00 58.67 244.00 40.00 244.00
C 38.05 244.65 32.17 243.58 35.00 241.00
C 38.21 236.39 41.55 232.27 40.00 226.00
C 40.39 224.43 39.06 221.78 41.00 221.00
C 41.43 207.85 46.40 195.33 54.00 185.00
C 46.84 182.46 39.26 178.80 35.08 171.92 C 32.13 164.55 39.26 154.10 35.00 145.00
C 39.71 146.34 43.85 150.30 47.00 154.00
C 55.17 150.19 64.44 150.61 73.00 153.00
C 75.78 148.69 80.30 146.24 84.00 143.00
C 84.76 151.14 81.41 160.81 88.25 166.75 C 88.78 173.06 80.85 178.68 76.00 182.00
C 93.55 193.73 100.05 215.29 103.00 235.00
C 110.18 234.82 118.22 234.81 124.00 231.00
C 110.69 223.40 100.60 209.10 99.00 194.00
C 97.57 192.97 97.31 188.96 99.00 188.00
C 98.74 179.73 105.59 170.83 114.00 170.00
C 115.03 168.57 119.04 168.31 120.00 170.00
C 128.15 167.80 140.90 185.30 128.78 185.22 C 123.87 176.61 111.24 175.25 107.23 185.23 C 103.84 203.83 120.09 222.92 136.23 227.21 C 152.23 220.64 169.67 202.17 162.08 183.92 C 154.46 173.64 145.16 185.26 138.99 188.99 C 129.77 184.74 143.06 171.91 150.01 172.01 C 173.15 167.23 178.02 200.49 165.08 214.08 C 159.96 221.16 153.55 227.77 146.00 232.00
C 150.82 235.46 157.90 234.82 164.00 235.00
C 168.98 213.65 178.94 193.25 193.00 176.00
C 195.21 173.04 198.02 170.10 201.00 168.00
C 203.09 166.68 204.60 164.71 207.00 164.00
C 201.11 158.48 198.12 151.17 199.00 143.00
C 193.98 146.66 183.42 161.64 180.22 147.78 C 171.21 130.07 198.06 106.58 211.00 123.00
C 217.37 119.33 227.12 122.36 229.77 113.77 C 239.26 99.74 263.89 118.44 252.00 132.00
C 248.25 129.05 244.87 125.51 240.00 125.00
C 243.79 129.57 248.69 133.78 249.00 140.00
C 256.73 143.44 272.05 145.15 262.69 156.69 C 258.80 165.63 249.11 169.97 240.00 171.00
C 246.51 186.00 252.36 201.80 252.00 219.00
M 178.00 155.00 
C 172.36 154.60 177.12 161.86 176.98 165.02 C 177.03 170.02 176.99 175.01 177.00 180.00
C 164.66 173.90 173.43 157.11 163.25 148.75 C 155.18 139.60 140.45 137.55 129.78 142.78 C 116.23 146.64 123.77 168.39 109.00 167.00
C 109.67 161.79 110.52 156.56 113.00 152.00
C 104.67 152.00 96.33 152.00 88.00 152.00
C 85.44 143.56 94.93 146.40 100.00 146.00 C 106.33 146.00 112.67 146.00 119.00 146.00
C 126.92 130.39 148.99 129.92 162.23 138.77 C 165.90 147.56 177.87 145.73 178.00 155.00
M 134.00 196.00 
C 141.01 187.26 160.38 185.21 156.00 202.00 C 153.99 212.27 144.57 219.23 135.77 223.77 C 126.91 221.02 118.83 211.43 115.08 202.92 C 109.17 190.38 128.90 183.96 134.00 196.00 Z"/>
</g>
<g fill="None" fill-opacity="0.0" stroke="#777777" stroke-opacity="1.00" stroke-width="0.3"><path d="
M 20.00 57.00 
C 23.33 57.00 26.67 57.00 30.00 57.00
C 27.79 55.28 22.28 55.46 20.00 57.00 Z"/>
</g>
<g fill="None" fill-opacity="0.0" stroke="#121212" stroke-opacity="1.00" stroke-width="0.3"><path d="
M 53.00 56.00 
C 47.81 55.52 47.49 63.98 50.99 65.99 C 56.65 66.90 55.87 58.55 53.00 56.00 Z"/>
</g>
<g fill="None" fill-opacity="0.0" stroke="#777777" stroke-opacity="1.00" stroke-width="0.3"><path d="
M 222.00 57.00 
C 225.33 57.00 228.67 57.00 232.00 57.00
C 229.79 55.28 224.28 55.46 222.00 57.00 Z"/>
</g>
<g fill="None" fill-opacity="0.0" stroke="#0C0C0C" stroke-opacity="1.00" stroke-width="0.3"><path d="
M 6.00 66.00 
C 6.00 68.00 6.00 70.00 6.00 72.00
C 11.69 85.95 32.80 78.22 40.00 89.00 C 38.19 102.25 8.28 100.34 10.00 85.00
C 8.00 85.00 6.00 85.00 4.00 85.00
C 2.50 93.14 8.93 101.31 16.93 102.07 C 31.51 110.04 59.22 92.60 39.22 79.78 C 31.61 76.56 23.21 75.95 15.23 73.77 C 5.35 66.98 19.93 59.98 26.98 62.02 C 38.23 59.42 36.26 74.41 45.00 73.00
C 46.60 64.25 38.34 56.60 30.00 57.00
C 26.67 57.00 23.33 57.00 20.00 57.00
C 14.12 56.57 6.91 59.59 6.00 66.00 Z"/>
</g>
<g fill="None" fill-opacity="0.0" stroke="#0D0D0D" stroke-opacity="1.00" stroke-width="0.3"><path d="
M 213.00 88.00 
C 212.18 85.39 210.09 84.40 207.00 85.00
C 207.00 87.00 207.00 89.00 207.00 91.00
C 211.06 108.46 249.28 108.41 248.92 88.08 C 246.44 78.38 234.97 77.87 227.01 75.99 C 216.83 78.68 207.60 62.88 222.00 63.00
C 224.28 61.46 229.79 61.28 232.00 63.00
C 241.72 60.57 238.86 76.01 248.00 73.00
C 248.41 64.49 240.48 56.61 232.00 57.00
C 228.67 57.00 225.33 57.00 222.00 57.00
C 209.45 54.55 201.73 73.49 214.31 78.69 C 222.48 84.51 242.60 78.91 241.75 92.75 C 234.81 99.76 214.28 99.98 213.00 88.00 Z"/>
</g>
<g fill="None" fill-opacity="0.0" stroke="#0B0B0B" stroke-opacity="1.00" stroke-width="0.3"><path d="
M 296.00 103.00 
C 293.25 94.38 287.32 86.95 284.77 78.23 C 279.56 71.84 278.97 59.73 271.03 57.03 C 260.12 69.39 254.77 88.13 246.00 103.00
C 254.87 105.62 256.07 95.77 259.26 90.26 C 266.34 87.38 275.22 89.80 283.00 89.00
C 285.88 94.73 287.15 105.46 296.00 103.00
M 279.00 83.00 
C 275.75 84.24 263.18 85.63 264.00 82.00
C 265.51 76.73 268.78 72.06 271.00 67.00
C 275.35 71.09 276.63 77.65 279.00 83.00 Z"/>
</g>
<g fill="None" fill-opacity="0.0" stroke="#0E0E0E" stroke-opacity="1.00" stroke-width="0.3"><path d="
M 62.00 70.00 
C 60.67 71.47 56.26 71.71 55.00 70.00
C 55.23 66.64 50.99 68.45 49.00 68.00
C 49.00 75.00 49.00 82.00 49.00 89.00 C 49.86 94.33 45.76 105.56 55.00 103.00
C 57.55 94.64 48.71 75.02 62.00 76.00
C 64.13 84.18 57.42 99.61 65.97 102.97 C 72.72 97.89 67.21 84.37 69.00 76.00
C 72.51 76.55 77.24 74.84 80.00 77.00
C 80.00 85.67 80.00 94.33 80.00 103.00
C 82.00 103.00 84.00 103.00 86.00 103.00
C 86.66 94.17 84.67 84.01 87.00 76.00
C 89.00 76.00 91.00 76.00 93.00 76.00
C 93.00 74.33 93.00 72.67 93.00 71.00
C 86.36 73.10 84.98 67.23 86.00 62.00
C 84.93 59.94 81.88 61.47 80.00 61.00
C 80.00 64.00 80.00 67.00 80.00 70.00
C 77.39 71.56 71.54 71.72 69.00 70.00
C 72.92 58.76 58.06 58.76 62.00 70.00 Z"/>
</g>
<g fill="None" fill-opacity="0.0" stroke="#737373" stroke-opacity="1.00" stroke-width="0.3"><path d="
M 93.00 71.00 
C 91.93 68.94 88.88 70.47 87.00 70.00
C 86.53 67.48 88.03 63.77 86.00 62.00
C 84.98 67.23 86.36 73.10 93.00 71.00 Z"/>
</g>
<g fill="None" fill-opacity="0.0" stroke="#8F8F8F" stroke-opacity="1.00" stroke-width="0.3"><path d="
M 222.00 63.00 
C 225.33 63.00 228.67 63.00 232.00 63.00
C 229.79 61.28 224.28 61.46 222.00 63.00 Z"/>
</g>
<g fill="None" fill-opacity="0.0" stroke="#E0E0E0" stroke-opacity="1.00" stroke-width="0.3"><path d="
M 136.00 69.00 
C 135.84 69.06 136.00 70.00 136.00 70.00
C 138.04 73.97 145.23 66.92 150.00 69.00
C 152.62 78.72 137.28 72.88 136.70 82.70 C 133.44 89.11 141.34 105.26 129.00 103.00
C 129.00 98.33 129.00 93.67 129.00 89.00
C 118.67 89.00 108.33 89.00 98.00 89.00
C 98.96 95.54 105.95 98.58 112.00 98.00 C 119.18 97.81 120.44 87.92 128.00 90.00
C 127.22 96.99 120.53 103.87 113.00 103.00
C 111.67 104.47 107.26 104.71 106.00 103.00
C 93.34 103.14 89.10 88.10 93.00 78.00
C 91.93 75.94 88.88 77.47 87.00 77.00
C 86.34 85.50 88.33 95.33 86.00 103.00
C 84.00 103.00 82.00 103.00 80.00 103.00
C 80.00 94.33 80.00 85.67 80.00 77.00
C 77.67 85.01 79.66 95.17 79.00 104.00
C 74.31 103.36 75.79 106.52 77.00 109.00
C 67.64 114.44 59.30 121.41 50.00 127.00
C 53.70 129.80 59.43 128.98 64.00 130.00
C 64.05 137.33 61.23 152.48 73.22 147.22 C 76.50 141.15 68.92 125.54 81.00 128.00 C 99.26 128.69 116.75 126.31 135.00 127.00 C 150.11 123.92 172.22 134.08 182.00 120.00
C 148.50 121.09 113.12 122.07 80.00 120.00
C 92.38 112.88 103.50 101.75 120.00 106.00 C 136.86 105.01 154.68 105.77 171.00 104.00
C 168.16 103.41 164.02 105.22 162.00 103.00
C 154.46 103.36 148.73 95.15 150.00 88.00
C 158.71 84.97 154.54 97.45 162.22 97.78 C 166.90 99.74 179.58 95.83 172.30 90.70 C 161.90 91.31 141.67 82.08 156.00 71.00
C 150.10 65.41 142.82 64.25 136.00 69.00 Z"/>
</g>
<g fill="None" fill-opacity="0.0" stroke="#7A7A7A" stroke-opacity="1.00" stroke-width="0.3"><path d="
M 6.00 72.00 
C 6.00 70.00 6.00 68.00 6.00 66.00
C 4.31 66.96 4.57 70.97 6.00 72.00 Z"/>
</g>
<g fill="None" fill-opacity="0.0" stroke="#ECECEC" stroke-opacity="1.00" stroke-width="0.3"><path d="
M 264.00 82.00 
C 268.09 84.24 274.16 82.40 279.00 83.00
C 276.63 77.65 275.35 71.09 271.00 67.00
C 268.78 72.06 265.51 76.73 264.00 82.00 Z"/>
</g>
<g fill="None" fill-opacity="0.0" stroke="#0F0F0F" stroke-opacity="1.00" stroke-width="0.3"><path d="
M 93.00 78.00 
C 89.10 88.10 93.34 103.14 106.00 103.00
C 108.33 103.00 110.67 103.00 113.00 103.00
C 120.53 103.87 127.22 96.99 128.00 90.00
C 120.44 87.92 119.18 97.81 112.00 98.00 C 105.95 98.58 98.96 95.54 98.00 89.00
C 108.33 89.00 118.67 89.00 129.00 89.00
C 129.00 93.67 129.00 98.33 129.00 103.00
C 141.34 105.26 133.44 89.11 136.70 82.70 C 137.28 72.88 152.62 78.72 150.00 69.00
C 145.23 66.92 138.04 73.97 136.00 70.00
C 133.67 70.00 131.33 70.00 129.00 70.00
C 129.00 73.33 129.00 76.67 129.00 80.00
C 122.98 66.17 100.75 65.03 93.00 78.00
M 121.00 83.00 
C 113.67 83.00 106.33 83.00 99.00 83.00
C 99.77 72.04 120.80 71.82 121.00 83.00 Z"/>
</g>
<g fill="None" fill-opacity="0.0" stroke="#989898" stroke-opacity="1.00" stroke-width="0.3"><path d="
M 129.00 70.00 
C 131.33 70.00 133.67 70.00 136.00 70.00
C 136.00 70.00 135.84 69.06 136.00 69.00
C 133.80 69.44 130.45 68.04 129.00 70.00 Z"/>
</g>
<g fill="None" fill-opacity="0.0" stroke="#0D0D0D" stroke-opacity="1.00" stroke-width="0.3"><path d="
M 156.00 71.00 
C 141.67 82.08 161.90 91.31 172.30 90.70 C 179.58 95.83 166.90 99.74 162.22 97.78 C 154.54 97.45 158.71 84.97 150.00 88.00
C 148.73 95.15 154.46 103.36 162.00 103.00
C 165.00 103.00 168.00 103.00 171.00 103.00
C 171.50 103.00 172.52 103.09 173.00 103.00
C 179.94 101.95 182.92 93.98 180.00 88.00
C 179.11 88.09 178.80 87.13 178.00 87.00
C 173.59 82.70 167.00 84.30 161.78 82.22 C 152.95 79.83 162.41 72.33 168.00 75.00 C 175.68 73.83 172.19 86.41 181.00 83.00
C 181.00 82.00 181.00 81.00 181.00 80.00
C 179.68 68.63 164.53 66.49 156.00 71.00 Z"/>
</g>
<g fill="None" fill-opacity="0.0" stroke="#6D6D6D" stroke-opacity="1.00" stroke-width="0.3"><path d="
M 62.00 70.00 
C 59.67 70.00 57.33 70.00 55.00 70.00
C 56.26 71.71 60.67 71.47 62.00 70.00 Z"/>
</g>
<g fill="None" fill-opacity="0.0" stroke="#717171" stroke-opacity="1.00" stroke-width="0.3"><path d="
M 80.00 70.00 
C 76.33 70.00 72.67 70.00 69.00 70.00
C 71.54 71.72 77.39 71.56 80.00 70.00 Z"/>
</g>
<g fill="None" fill-opacity="0.0" stroke="#EBEBEB" stroke-opacity="1.00" stroke-width="0.3"><path d="
M 121.00 83.00 
C 120.80 71.82 99.77 72.04 99.00 83.00
C 106.33 83.00 113.67 83.00 121.00 83.00 Z"/>
</g>
<g fill="None" fill-opacity="0.0" stroke="#D1D1D1" stroke-opacity="1.00" stroke-width="0.3"><path d="
M 178.00 87.00 
C 178.15 85.82 177.57 84.94 177.00 84.00
C 179.51 85.09 183.95 82.27 181.00 80.00
C 181.00 81.00 181.00 82.00 181.00 83.00
C 172.19 86.41 175.68 73.83 168.00 75.00 C 162.41 72.33 152.95 79.83 161.78 82.22 C 167.00 84.30 173.59 82.70 178.00 87.00 Z"/>
</g>
<g fill="None" fill-opacity="0.0" stroke="#717171" stroke-opacity="1.00" stroke-width="0.3"><path d="
M 86.00 103.00 
C 88.33 95.33 86.34 85.50 87.00 77.00
C 87.00 77.00 87.06 76.01 87.00 76.00
C 84.67 84.01 86.66 94.17 86.00 103.00 Z"/>
</g>
<g fill="None" fill-opacity="0.0" stroke="#6C6C6C" stroke-opacity="1.00" stroke-width="0.3"><path d="
M 279.00 83.00 
C 274.16 82.40 268.09 84.24 264.00 82.00
C 263.18 85.63 275.75 84.24 279.00 83.00 Z"/>
</g>
<g fill="None" fill-opacity="0.0" stroke="#737373" stroke-opacity="1.00" stroke-width="0.3"><path d="
M 4.00 85.00 
C 6.00 85.00 8.00 85.00 10.00 85.00
C 9.04 83.31 5.03 83.57 4.00 85.00 Z"/>
</g>
<g fill="None" fill-opacity="0.0" stroke="#757575" stroke-opacity="1.00" stroke-width="0.3"><path d="
M 206.00 85.00 
C 206.03 84.89 207.00 85.00 207.00 85.00
C 210.09 84.40 212.18 85.39 213.00 88.00
C 213.00 86.67 213.00 85.33 213.00 84.00
C 210.80 84.44 207.45 83.04 206.00 85.00 Z"/>
</g>
<g fill="None" fill-opacity="0.0" stroke="#444444" stroke-opacity="1.00" stroke-width="0.3"><path d="
M 207.00 91.00 
C 207.00 89.00 207.00 87.00 207.00 85.00
C 207.00 85.00 206.03 84.89 206.00 85.00
C 206.39 86.87 205.13 89.86 207.00 91.00 Z"/>
</g>
<g fill="None" fill-opacity="0.0" stroke="#DADADA" stroke-opacity="1.00" stroke-width="0.3"><path d="
M 180.00 88.00 
C 182.92 93.98 179.94 101.95 173.00 103.00
C 180.84 105.17 191.32 102.10 197.77 109.23 C 204.29 114.73 210.70 117.06 219.00 114.00
C 215.97 107.61 196.36 106.60 204.00 97.00
C 195.48 96.29 187.36 88.03 180.00 88.00 Z"/>
</g>
<g fill="None" fill-opacity="0.0" stroke="#777777" stroke-opacity="1.00" stroke-width="0.3"><path d="
M 113.00 103.00 
C 110.67 103.00 108.33 103.00 106.00 103.00
C 107.26 104.71 111.67 104.47 113.00 103.00 Z"/>
</g>
<g fill="None" fill-opacity="0.0" stroke="#686868" stroke-opacity="1.00" stroke-width="0.3"><path d="
M 171.00 104.00 
C 171.00 104.00 170.77 103.34 171.00 103.00
C 168.00 103.00 165.00 103.00 162.00 103.00
C 164.02 105.22 168.16 103.41 171.00 104.00 Z"/>
</g>
<g fill="None" fill-opacity="0.0" stroke="#020202" stroke-opacity="1.00" stroke-width="0.3"><path d="
M 201.00 168.00 
C 198.79 170.96 195.98 173.90 193.00 176.00
C 178.94 193.25 168.98 213.65 164.00 235.00
C 157.90 234.82 150.82 235.46 146.00 232.00
C 153.55 227.77 159.96 221.16 165.08 214.08 C 178.02 200.49 173.15 167.23 150.01 172.01 C 143.06 171.91 129.77 184.74 138.99 188.99 C 145.16 185.26 154.46 173.64 162.08 183.92 C 169.67 202.17 152.23 220.64 136.23 227.21 C 120.09 222.92 103.84 203.83 107.23 185.23 C 111.24 175.25 123.87 176.61 128.78 185.22 C 140.90 185.30 128.15 167.80 120.00 170.00
C 118.00 170.00 116.00 170.00 114.00 170.00
C 105.59 170.83 98.74 179.73 99.00 188.00
C 99.00 190.00 99.00 192.00 99.00 194.00
C 100.60 209.10 110.69 223.40 124.00 231.00
C 118.22 234.81 110.18 234.82 103.00 235.00
C 100.05 215.29 93.55 193.73 76.00 182.00
C 80.85 178.68 88.78 173.06 88.25 166.75 C 81.41 160.81 84.76 151.14 84.00 143.00
C 80.30 146.24 75.78 148.69 73.00 153.00
C 64.44 150.61 55.17 150.19 47.00 154.00
C 43.85 150.30 39.71 146.34 35.00 145.00
C 39.26 154.10 32.13 164.55 35.08 171.92 C 39.26 178.80 46.84 182.46 54.00 185.00
C 46.40 195.33 41.43 207.85 41.00 221.00
C 40.61 222.57 41.94 225.22 40.00 226.00
C 41.55 232.27 38.21 236.39 35.00 241.00
C 34.48 243.92 38.33 242.73 40.00 243.00
C 58.50 243.67 78.32 241.67 96.00 244.00
C 109.81 243.98 122.98 241.16 135.93 238.07 C 148.49 242.98 162.04 244.42 176.00 244.00
C 185.76 241.68 197.49 243.65 208.00 243.00
C 213.33 243.00 218.67 243.00 224.00 243.00
C 237.33 243.00 250.67 243.00 264.00 243.00
C 266.21 234.28 257.11 230.34 253.00 226.00
C 251.04 224.55 252.44 221.20 252.00 219.00
C 252.36 201.80 246.51 186.00 240.00 171.00
C 249.11 169.97 258.80 165.63 262.69 156.69 C 272.05 145.15 256.73 143.44 249.00 140.00
C 248.69 133.78 243.79 129.57 240.00 125.00
C 244.87 125.51 248.25 129.05 252.00 132.00
C 263.89 118.44 239.26 99.74 229.77 113.77 C 227.12 122.36 217.37 119.33 211.00 123.00
C 198.06 106.58 171.21 130.07 180.22 147.78 C 183.42 161.64 193.98 146.66 199.00 143.00
C 198.12 151.17 201.11 158.48 207.00 164.00
C 204.60 164.71 203.09 166.68 201.00 168.00 Z"/>
</g>
<g fill="None" fill-opacity="0.0" stroke="#DFDFDF" stroke-opacity="1.00" stroke-width="0.3"><path d="
M 178.00 155.00 
C 177.87 145.73 165.90 147.56 162.23 138.77 C 148.99 129.92 126.92 130.39 119.00 146.00
C 112.67 146.00 106.33 146.00 100.00 146.00 C 94.93 146.40 85.44 143.56 88.00 152.00
C 96.33 152.00 104.67 152.00 113.00 152.00
C 110.52 156.56 109.67 161.79 109.00 167.00
C 123.77 168.39 116.23 146.64 129.78 142.78 C 140.45 137.55 155.18 139.60 163.25 148.75 C 173.43 157.11 164.66 173.90 177.00 180.00
C 176.99 175.01 177.03 170.02 176.98 165.02 C 177.12 161.86 172.36 154.60 178.00 155.00 Z"/>
</g>
<g fill="None" fill-opacity="0.0" stroke="#797979" stroke-opacity="1.00" stroke-width="0.3"><path d="
M 193.00 176.00 
C 195.98 173.90 198.79 170.96 201.00 168.00
C 198.02 170.10 195.21 173.04 193.00 176.00 Z"/>
</g>
<g fill="None" fill-opacity="0.0" stroke="#6F6F6F" stroke-opacity="1.00" stroke-width="0.3"><path d="
M 114.00 170.00 
C 116.00 170.00 118.00 170.00 120.00 170.00
C 119.04 168.31 115.03 168.57 114.00 170.00 Z"/>
</g>
<g fill="None" fill-opacity="0.0" stroke="#7E7E7E" stroke-opacity="1.00" stroke-width="0.3"><path d="
M 99.00 194.00 
C 99.00 192.00 99.00 190.00 99.00 188.00
C 97.31 188.96 97.57 192.97 99.00 194.00 Z"/>
</g>
<g fill="None" fill-opacity="0.0" stroke="#656565" stroke-opacity="1.00" stroke-width="0.3"><path d="
M 134.00 196.00 
C 128.90 183.96 109.17 190.38 115.08 202.92 C 118.83 211.43 126.91 221.02 135.77 223.77 C 144.57 219.23 153.99 212.27 156.00 202.00 C 160.38 185.21 141.01 187.26 134.00 196.00 Z"/>
</g>
<g fill="None" fill-opacity="0.0" stroke="#777877" stroke-opacity="1.00" stroke-width="0.3"><path d="
M 253.00 226.00 
C 252.56 223.80 253.96 220.45 252.00 219.00
C 252.44 221.20 251.04 224.55 253.00 226.00 Z"/>
</g>
<g fill="None" fill-opacity="0.0" stroke="#757575" stroke-opacity="1.00" stroke-width="0.3"><path d="
M 40.00 226.00 
C 41.94 225.22 40.61 222.57 41.00 221.00
C 39.06 221.78 40.39 224.43 40.00 226.00 Z"/>
</g>
<g fill="None" fill-opacity="0.0" stroke="#BFBFBF" stroke-opacity="1.00" stroke-width="0.3"><path d="
M 40.00 244.00 
C 39.96 244.00 40.00 243.00 40.00 243.00
C 38.33 242.73 34.48 243.92 35.00 241.00
C 32.17 243.58 38.05 244.65 40.00 244.00 Z"/>
</g>
<g fill="None" fill-opacity="0.0" stroke="#7E7E7E" stroke-opacity="1.00" stroke-width="0.3"><path d="
M 40.00 244.00 
C 58.67 244.00 77.33 244.00 96.00 244.00
C 78.32 241.67 58.50 243.67 40.00 243.00
C 40.00 243.00 39.96 244.00 40.00 244.00 Z"/>
</g>
<g fill="None" fill-opacity="0.0" stroke="#686868" stroke-opacity="1.00" stroke-width="0.3"><path d="
M 176.00 244.00 
C 186.67 244.00 197.33 244.00 208.00 244.00
C 207.96 244.00 208.00 243.00 208.00 243.00
C 197.49 243.65 185.76 241.68 176.00 244.00 Z"/>
</g>
<g fill="None" fill-opacity="0.0" stroke="#868686" stroke-opacity="1.00" stroke-width="0.3"><path d="
M 208.00 244.00 
C 213.18 243.39 219.58 245.25 224.00 243.00
C 218.67 243.00 213.33 243.00 208.00 243.00
C 208.00 243.00 207.96 244.00 208.00 244.00 Z"/>
</g>
<g fill="#FCFCFC" fill-opacity="1.00" stroke="None">
<path d="
M 0.00 300.00 
L 300.00 300.00
L 300.00 0.00
L 0.00 0.00
L 0.00 300.00
M 30.00 57.00 
C 38.34 56.60 46.60 64.25 45.00 73.00
C 36.26 74.41 38.23 59.42 26.98 62.02 C 19.93 59.98 5.35 66.98 15.23 73.77 C 23.21 75.95 31.61 76.56 39.22 79.78 C 59.22 92.60 31.51 110.04 16.93 102.07 C 8.93 101.31 2.50 93.14 4.00 85.00
C 5.03 83.57 9.04 83.31 10.00 85.00
C 8.28 100.34 38.19 102.25 40.00 89.00 C 32.80 78.22 11.69 85.95 6.00 72.00
C 4.57 70.97 4.31 66.96 6.00 66.00
C 6.91 59.59 14.12 56.57 20.00 57.00
C 22.28 55.46 27.79 55.28 30.00 57.00
M 53.00 56.00 
C 55.87 58.55 56.65 66.90 50.99 65.99 C 47.49 63.98 47.81 55.52 53.00 56.00
M 232.00 57.00 
C 240.48 56.61 248.41 64.49 248.00 73.00
C 238.86 76.01 241.72 60.57 232.00 63.00
C 228.67 63.00 225.33 63.00 222.00 63.00
C 207.60 62.88 216.83 78.68 227.01 75.99 C 234.97 77.87 246.44 78.38 248.92 88.08 C 249.28 108.41 211.06 108.46 207.00 91.00
C 205.13 89.86 206.39 86.87 206.00 85.00
C 207.45 83.04 210.80 84.44 213.00 84.00
C 213.00 85.33 213.00 86.67 213.00 88.00
C 214.28 99.98 234.81 99.76 241.75 92.75 C 242.60 78.91 222.48 84.51 214.31 78.69 C 201.73 73.49 209.45 54.55 222.00 57.00
C 224.28 55.46 229.79 55.28 232.00 57.00
M 296.00 103.00 
C 287.15 105.46 285.88 94.73 283.00 89.00
C 275.22 89.80 266.34 87.38 259.26 90.26 C 256.07 95.77 254.87 105.62 246.00 103.00
C 254.77 88.13 260.12 69.39 271.03 57.03 C 278.97 59.73 279.56 71.84 284.77 78.23 C 287.32 86.95 293.25 94.38 296.00 103.00
M 69.00 70.00 
C 72.67 70.00 76.33 70.00 80.00 70.00
C 80.00 67.00 80.00 64.00 80.00 61.00
C 81.88 61.47 84.93 59.94 86.00 62.00
C 88.03 63.77 86.53 67.48 87.00 70.00
C 88.88 70.47 91.93 68.94 93.00 71.00
C 93.00 72.67 93.00 74.33 93.00 76.00
C 91.00 76.00 89.00 76.00 87.00 76.00
C 87.06 76.01 87.00 77.00 87.00 77.00
C 88.88 77.47 91.93 75.94 93.00 78.00
C 100.75 65.03 122.98 66.17 129.00 80.00
C 129.00 76.67 129.00 73.33 129.00 70.00
C 130.45 68.04 133.80 69.44 136.00 69.00
C 142.82 64.25 150.10 65.41 156.00 71.00
C 164.53 66.49 179.68 68.63 181.00 80.00
C 183.95 82.27 179.51 85.09 177.00 84.00
C 177.57 84.94 178.15 85.82 178.00 87.00
C 178.80 87.13 179.11 88.09 180.00 88.00
C 187.36 88.03 195.48 96.29 204.00 97.00
C 196.36 106.60 215.97 107.61 219.00 114.00
C 210.70 117.06 204.29 114.73 197.77 109.23 C 191.32 102.10 180.84 105.17 173.00 103.00
C 172.52 103.09 171.50 103.00 171.00 103.00
C 170.77 103.34 171.00 104.00 171.00 104.00
C 154.68 105.77 136.86 105.01 120.00 106.00 C 103.50 101.75 92.38 112.88 80.00 120.00
C 113.12 122.07 148.50 121.09 182.00 120.00
C 172.22 134.08 150.11 123.92 135.00 127.00 C 116.75 126.31 99.26 128.69 81.00 128.00 C 68.92 125.54 76.50 141.15 73.22 147.22 C 61.23 152.48 64.05 137.33 64.00 130.00
C 59.43 128.98 53.70 129.80 50.00 127.00
C 59.30 121.41 67.64 114.44 77.00 109.00
C 75.79 106.52 74.31 103.36 79.00 104.00
C 79.66 95.17 77.67 85.01 80.00 77.00
C 77.24 74.84 72.51 76.55 69.00 76.00
C 67.21 84.37 72.72 97.89 65.97 102.97 C 57.42 99.61 64.13 84.18 62.00 76.00
C 48.71 75.02 57.55 94.64 55.00 103.00
C 45.76 105.56 49.86 94.33 49.00 89.00 C 49.00 82.00 49.00 75.00 49.00 68.00
C 50.99 68.45 55.23 66.64 55.00 70.00
C 57.33 70.00 59.67 70.00 62.00 70.00
C 58.06 58.76 72.92 58.76 69.00 70.00
M 252.00 219.00 
C 253.96 220.45 252.56 223.80 253.00 226.00
C 257.11 230.34 266.21 234.28 264.00 243.00
C 250.67 243.00 237.33 243.00 224.00 243.00
C 219.58 245.25 213.18 243.39 208.00 244.00
C 197.33 244.00 186.67 244.00 176.00 244.00
C 162.04 244.42 148.49 242.98 135.93 238.07 C 122.98 241.16 109.81 243.98 96.00 244.00
C 77.33 244.00 58.67 244.00 40.00 244.00
C 38.05 244.65 32.17 243.58 35.00 241.00
C 38.21 236.39 41.55 232.27 40.00 226.00
C 40.39 224.43 39.06 221.78 41.00 221.00
C 41.43 207.85 46.40 195.33 54.00 185.00
C 46.84 182.46 39.26 178.80 35.08 171.92 C 32.13 164.55 39.26 154.10 35.00 145.00
C 39.71 146.34 43.85 150.30 47.00 154.00
C 55.17 150.19 64.44 150.61 73.00 153.00
C 75.78 148.69 80.30 146.24 84.00 143.00
C 84.76 151.14 81.41 160.81 88.25 166.75 C 88.78 173.06 80.85 178.68 76.00 182.00
C 93.55 193.73 100.05 215.29 103.00 235.00
C 110.18 234.82 118.22 234.81 124.00 231.00
C 110.69 223.40 100.60 209.10 99.00 194.00
C 97.57 192.97 97.31 188.96 99.00 188.00
C 98.74 179.73 105.59 170.83 114.00 170.00
C 115.03 168.57 119.04 168.31 120.00 170.00
C 128.15 167.80 140.90 185.30 128.78 185.22 C 123.87 176.61 111.24 175.25 107.23 185.23 C 103.84 203.83 120.09 222.92 136.23 227.21 C 152.23 220.64 169.67 202.17 162.08 183.92 C 154.46 173.64 145.16 185.26 138.99 188.99 C 129.77 184.74 143.06 171.91 150.01 172.01 C 173.15 167.23 178.02 200.49 165.08 214.08 C 159.96 221.16 153.55 227.77 146.00 232.00
C 150.82 235.46 157.90 234.82 164.00 235.00
C 168.98 213.65 178.94 193.25 193.00 176.00
C 195.21 173.04 198.02 170.10 201.00 168.00
C 203.09 166.68 204.60 164.71 207.00 164.00
C 201.11 158.48 198.12 151.17 199.00 143.00
C 193.98 146.66 183.42 161.64 180.22 147.78 C 171.21 130.07 198.06 106.58 211.00 123.00
C 217.37 119.33 227.12 122.36 229.77 113.77 C 239.26 99.74 263.89 118.44 252.00 132.00
C 248.25 129.05 244.87 125.51 240.00 125.00
C 243.79 129.57 248.69 133.78 249.00 140.00
C 256.73 143.44 272.05 145.15 262.69 156.69 C 258.80 165.63 249.11 169.97 240.00 171.00
C 246.51 186.00 252.36 201.80 252.00 219.00
M 178.00 155.00 
C 172.36 154.60 177.12 161.86 176.98 165.02 C 177.03 170.02 176.99 175.01 177.00 180.00
C 164.66 173.90 173.43 157.11 163.25 148.75 C 155.18 139.60 140.45 137.55 129.78 142.78 C 116.23 146.64 123.77 168.39 109.00 167.00
C 109.67 161.79 110.52 156.56 113.00 152.00
C 104.67 152.00 96.33 152.00 88.00 152.00
C 85.44 143.56 94.93 146.40 100.00 146.00 C 106.33 146.00 112.67 146.00 119.00 146.00
C 126.92 130.39 148.99 129.92 162.23 138.77 C 165.90 147.56 177.87 145.73 178.00 155.00
M 134.00 196.00 
C 141.01 187.26 160.38 185.21 156.00 202.00 C 153.99 212.27 144.57 219.23 135.77 223.77 C 126.91 221.02 118.83 211.43 115.08 202.92 C 109.17 190.38 128.90 183.96 134.00 196.00 Z"/>
</g>
<g fill="#777777" fill-opacity="1.00" stroke="None">
<path d="
M 20.00 57.00 
C 23.33 57.00 26.67 57.00 30.00 57.00
C 27.79 55.28 22.28 55.46 20.00 57.00 Z"/>
</g>
<g fill="#121212" fill-opacity="1.00" stroke="None">
<path d="
M 53.00 56.00 
C 47.81 55.52 47.49 63.98 50.99 65.99 C 56.65 66.90 55.87 58.55 53.00 56.00 Z"/>
</g>
<g fill="#777777" fill-opacity="1.00" stroke="None">
<path d="
M 222.00 57.00 
C 225.33 57.00 228.67 57.00 232.00 57.00
C 229.79 55.28 224.28 55.46 222.00 57.00 Z"/>
</g>
<g fill="#0C0C0C" fill-opacity="1.00" stroke="None">
<path d="
M 6.00 66.00 
C 6.00 68.00 6.00 70.00 6.00 72.00
C 11.69 85.95 32.80 78.22 40.00 89.00 C 38.19 102.25 8.28 100.34 10.00 85.00
C 8.00 85.00 6.00 85.00 4.00 85.00
C 2.50 93.14 8.93 101.31 16.93 102.07 C 31.51 110.04 59.22 92.60 39.22 79.78 C 31.61 76.56 23.21 75.95 15.23 73.77 C 5.35 66.98 19.93 59.98 26.98 62.02 C 38.23 59.42 36.26 74.41 45.00 73.00
C 46.60 64.25 38.34 56.60 30.00 57.00
C 26.67 57.00 23.33 57.00 20.00 57.00
C 14.12 56.57 6.91 59.59 6.00 66.00 Z"/>
</g>
<g fill="#0D0D0D" fill-opacity="1.00" stroke="None">
<path d="
M 213.00 88.00 
C 212.18 85.39 210.09 84.40 207.00 85.00
C 207.00 87.00 207.00 89.00 207.00 91.00
C 211.06 108.46 249.28 108.41 248.92 88.08 C 246.44 78.38 234.97 77.87 227.01 75.99 C 216.83 78.68 207.60 62.88 222.00 63.00
C 224.28 61.46 229.79 61.28 232.00 63.00
C 241.72 60.57 238.86 76.01 248.00 73.00
C 248.41 64.49 240.48 56.61 232.00 57.00
C 228.67 57.00 225.33 57.00 222.00 57.00
C 209.45 54.55 201.73 73.49 214.31 78.69 C 222.48 84.51 242.60 78.91 241.75 92.75 C 234.81 99.76 214.28 99.98 213.00 88.00 Z"/>
</g>
<g fill="#0B0B0B" fill-opacity="1.00" stroke="None">
<path d="
M 296.00 103.00 
C 293.25 94.38 287.32 86.95 284.77 78.23 C 279.56 71.84 278.97 59.73 271.03 57.03 C 260.12 69.39 254.77 88.13 246.00 103.00
C 254.87 105.62 256.07 95.77 259.26 90.26 C 266.34 87.38 275.22 89.80 283.00 89.00
C 285.88 94.73 287.15 105.46 296.00 103.00
M 279.00 83.00 
C 275.75 84.24 263.18 85.63 264.00 82.00
C 265.51 76.73 268.78 72.06 271.00 67.00
C 275.35 71.09 276.63 77.65 279.00 83.00 Z"/>
</g>
<g fill="#0E0E0E" fill-opacity="1.00" stroke="None">
<path d="
M 62.00 70.00 
C 60.67 71.47 56.26 71.71 55.00 70.00
C 55.23 66.64 50.99 68.45 49.00 68.00
C 49.00 75.00 49.00 82.00 49.00 89.00 C 49.86 94.33 45.76 105.56 55.00 103.00
C 57.55 94.64 48.71 75.02 62.00 76.00
C 64.13 84.18 57.42 99.61 65.97 102.97 C 72.72 97.89 67.21 84.37 69.00 76.00
C 72.51 76.55 77.24 74.84 80.00 77.00
C 80.00 85.67 80.00 94.33 80.00 103.00
C 82.00 103.00 84.00 103.00 86.00 103.00
C 86.66 94.17 84.67 84.01 87.00 76.00
C 89.00 76.00 91.00 76.00 93.00 76.00
C 93.00 74.33 93.00 72.67 93.00 71.00
C 86.36 73.10 84.98 67.23 86.00 62.00
C 84.93 59.94 81.88 61.47 80.00 61.00
C 80.00 64.00 80.00 67.00 80.00 70.00
C 77.39 71.56 71.54 71.72 69.00 70.00
C 72.92 58.76 58.06 58.76 62.00 70.00 Z"/>
</g>
<g fill="#737373" fill-opacity="1.00" stroke="None">
<path d="
M 93.00 71.00 
C 91.93 68.94 88.88 70.47 87.00 70.00
C 86.53 67.48 88.03 63.77 86.00 62.00
C 84.98 67.23 86.36 73.10 93.00 71.00 Z"/>
</g>
<g fill="#8F8F8F" fill-opacity="1.00" stroke="None">
<path d="
M 222.00 63.00 
C 225.33 63.00 228.67 63.00 232.00 63.00
C 229.79 61.28 224.28 61.46 222.00 63.00 Z"/>
</g>
<g fill="#E0E0E0" fill-opacity="1.00" stroke="None">
<path d="
M 136.00 69.00 
C 135.84 69.06 136.00 70.00 136.00 70.00
C 138.04 73.97 145.23 66.92 150.00 69.00
C 152.62 78.72 137.28 72.88 136.70 82.70 C 133.44 89.11 141.34 105.26 129.00 103.00
C 129.00 98.33 129.00 93.67 129.00 89.00
C 118.67 89.00 108.33 89.00 98.00 89.00
C 98.96 95.54 105.95 98.58 112.00 98.00 C 119.18 97.81 120.44 87.92 128.00 90.00
C 127.22 96.99 120.53 103.87 113.00 103.00
C 111.67 104.47 107.26 104.71 106.00 103.00
C 93.34 103.14 89.10 88.10 93.00 78.00
C 91.93 75.94 88.88 77.47 87.00 77.00
C 86.34 85.50 88.33 95.33 86.00 103.00
C 84.00 103.00 82.00 103.00 80.00 103.00
C 80.00 94.33 80.00 85.67 80.00 77.00
C 77.67 85.01 79.66 95.17 79.00 104.00
C 74.31 103.36 75.79 106.52 77.00 109.00
C 67.64 114.44 59.30 121.41 50.00 127.00
C 53.70 129.80 59.43 128.98 64.00 130.00
C 64.05 137.33 61.23 152.48 73.22 147.22 C 76.50 141.15 68.92 125.54 81.00 128.00 C 99.26 128.69 116.75 126.31 135.00 127.00 C 150.11 123.92 172.22 134.08 182.00 120.00
C 148.50 121.09 113.12 122.07 80.00 120.00
C 92.38 112.88 103.50 101.75 120.00 106.00 C 136.86 105.01 154.68 105.77 171.00 104.00
C 168.16 103.41 164.02 105.22 162.00 103.00
C 154.46 103.36 148.73 95.15 150.00 88.00
C 158.71 84.97 154.54 97.45 162.22 97.78 C 166.90 99.74 179.58 95.83 172.30 90.70 C 161.90 91.31 141.67 82.08 156.00 71.00
C 150.10 65.41 142.82 64.25 136.00 69.00 Z"/>
</g>
<g fill="#7A7A7A" fill-opacity="1.00" stroke="None">
<path d="
M 6.00 72.00 
C 6.00 70.00 6.00 68.00 6.00 66.00
C 4.31 66.96 4.57 70.97 6.00 72.00 Z"/>
</g>
<g fill="#ECECEC" fill-opacity="1.00" stroke="None">
<path d="
M 264.00 82.00 
C 268.09 84.24 274.16 82.40 279.00 83.00
C 276.63 77.65 275.35 71.09 271.00 67.00
C 268.78 72.06 265.51 76.73 264.00 82.00 Z"/>
</g>
<g fill="#0F0F0F" fill-opacity="1.00" stroke="None">
<path d="
M 93.00 78.00 
C 89.10 88.10 93.34 103.14 106.00 103.00
C 108.33 103.00 110.67 103.00 113.00 103.00
C 120.53 103.87 127.22 96.99 128.00 90.00
C 120.44 87.92 119.18 97.81 112.00 98.00 C 105.95 98.58 98.96 95.54 98.00 89.00
C 108.33 89.00 118.67 89.00 129.00 89.00
C 129.00 93.67 129.00 98.33 129.00 103.00
C 141.34 105.26 133.44 89.11 136.70 82.70 C 137.28 72.88 152.62 78.72 150.00 69.00
C 145.23 66.92 138.04 73.97 136.00 70.00
C 133.67 70.00 131.33 70.00 129.00 70.00
C 129.00 73.33 129.00 76.67 129.00 80.00
C 122.98 66.17 100.75 65.03 93.00 78.00
M 121.00 83.00 
C 113.67 83.00 106.33 83.00 99.00 83.00
C 99.77 72.04 120.80 71.82 121.00 83.00 Z"/>
</g>
<g fill="#989898" fill-opacity="1.00" stroke="None">
<path d="
M 129.00 70.00 
C 131.33 70.00 133.67 70.00 136.00 70.00
C 136.00 70.00 135.84 69.06 136.00 69.00
C 133.80 69.44 130.45 68.04 129.00 70.00 Z"/>
</g>
<g fill="#0D0D0D" fill-opacity="1.00" stroke="None">
<path d="
M 156.00 71.00 
C 141.67 82.08 161.90 91.31 172.30 90.70 C 179.58 95.83 166.90 99.74 162.22 97.78 C 154.54 97.45 158.71 84.97 150.00 88.00
C 148.73 95.15 154.46 103.36 162.00 103.00
C 165.00 103.00 168.00 103.00 171.00 103.00
C 171.50 103.00 172.52 103.09 173.00 103.00
C 179.94 101.95 182.92 93.98 180.00 88.00
C 179.11 88.09 178.80 87.13 178.00 87.00
C 173.59 82.70 167.00 84.30 161.78 82.22 C 152.95 79.83 162.41 72.33 168.00 75.00 C 175.68 73.83 172.19 86.41 181.00 83.00
C 181.00 82.00 181.00 81.00 181.00 80.00
C 179.68 68.63 164.53 66.49 156.00 71.00 Z"/>
</g>
<g fill="#6D6D6D" fill-opacity="1.00" stroke="None">
<path d="
M 62.00 70.00 
C 59.67 70.00 57.33 70.00 55.00 70.00
C 56.26 71.71 60.67 71.47 62.00 70.00 Z"/>
</g>
<g fill="#717171" fill-opacity="1.00" stroke="None">
<path d="
M 80.00 70.00 
C 76.33 70.00 72.67 70.00 69.00 70.00
C 71.54 71.72 77.39 71.56 80.00 70.00 Z"/>
</g>
<g fill="#EBEBEB" fill-opacity="1.00" stroke="None">
<path d="
M 121.00 83.00 
C 120.80 71.82 99.77 72.04 99.00 83.00
C 106.33 83.00 113.67 83.00 121.00 83.00 Z"/>
</g>
<g fill="#D1D1D1" fill-opacity="1.00" stroke="None">
<path d="
M 178.00 87.00 
C 178.15 85.82 177.57 84.94 177.00 84.00
C 179.51 85.09 183.95 82.27 181.00 80.00
C 181.00 81.00 181.00 82.00 181.00 83.00
C 172.19 86.41 175.68 73.83 168.00 75.00 C 162.41 72.33 152.95 79.83 161.78 82.22 C 167.00 84.30 173.59 82.70 178.00 87.00 Z"/>
</g>
<g fill="#717171" fill-opacity="1.00" stroke="None">
<path d="
M 86.00 103.00 
C 88.33 95.33 86.34 85.50 87.00 77.00
C 87.00 77.00 87.06 76.01 87.00 76.00
C 84.67 84.01 86.66 94.17 86.00 103.00 Z"/>
</g>
<g fill="#6C6C6C" fill-opacity="1.00" stroke="None">
<path d="
M 279.00 83.00 
C 274.16 82.40 268.09 84.24 264.00 82.00
C 263.18 85.63 275.75 84.24 279.00 83.00 Z"/>
</g>
<g fill="#737373" fill-opacity="1.00" stroke="None">
<path d="
M 4.00 85.00 
C 6.00 85.00 8.00 85.00 10.00 85.00
C 9.04 83.31 5.03 83.57 4.00 85.00 Z"/>
</g>
<g fill="#757575" fill-opacity="1.00" stroke="None">
<path d="
M 206.00 85.00 
C 206.03 84.89 207.00 85.00 207.00 85.00
C 210.09 84.40 212.18 85.39 213.00 88.00
C 213.00 86.67 213.00 85.33 213.00 84.00
C 210.80 84.44 207.45 83.04 206.00 85.00 Z"/>
</g>
<g fill="#444444" fill-opacity="1.00" stroke="None">
<path d="
M 207.00 91.00 
C 207.00 89.00 207.00 87.00 207.00 85.00
C 207.00 85.00 206.03 84.89 206.00 85.00
C 206.39 86.87 205.13 89.86 207.00 91.00 Z"/>
</g>
<g fill="#DADADA" fill-opacity="1.00" stroke="None">
<path d="
M 180.00 88.00 
C 182.92 93.98 179.94 101.95 173.00 103.00
C 180.84 105.17 191.32 102.10 197.77 109.23 C 204.29 114.73 210.70 117.06 219.00 114.00
C 215.97 107.61 196.36 106.60 204.00 97.00
C 195.48 96.29 187.36 88.03 180.00 88.00 Z"/>
</g>
<g fill="#777777" fill-opacity="1.00" stroke="None">
<path d="
M 113.00 103.00 
C 110.67 103.00 108.33 103.00 106.00 103.00
C 107.26 104.71 111.67 104.47 113.00 103.00 Z"/>
</g>
<g fill="#686868" fill-opacity="1.00" stroke="None">
<path d="
M 171.00 104.00 
C 171.00 104.00 170.77 103.34 171.00 103.00
C 168.00 103.00 165.00 103.00 162.00 103.00
C 164.02 105.22 168.16 103.41 171.00 104.00 Z"/>
</g>
<g fill="#020202" fill-opacity="1.00" stroke="None">
<path d="
M 201.00 168.00 
C 198.79 170.96 195.98 173.90 193.00 176.00
C 178.94 193.25 168.98 213.65 164.00 235.00
C 157.90 234.82 150.82 235.46 146.00 232.00
C 153.55 227.77 159.96 221.16 165.08 214.08 C 178.02 200.49 173.15 167.23 150.01 172.01 C 143.06 171.91 129.77 184.74 138.99 188.99 C 145.16 185.26 154.46 173.64 162.08 183.92 C 169.67 202.17 152.23 220.64 136.23 227.21 C 120.09 222.92 103.84 203.83 107.23 185.23 C 111.24 175.25 123.87 176.61 128.78 185.22 C 140.90 185.30 128.15 167.80 120.00 170.00
C 118.00 170.00 116.00 170.00 114.00 170.00
C 105.59 170.83 98.74 179.73 99.00 188.00
C 99.00 190.00 99.00 192.00 99.00 194.00
C 100.60 209.10 110.69 223.40 124.00 231.00
C 118.22 234.81 110.18 234.82 103.00 235.00
C 100.05 215.29 93.55 193.73 76.00 182.00
C 80.85 178.68 88.78 173.06 88.25 166.75 C 81.41 160.81 84.76 151.14 84.00 143.00
C 80.30 146.24 75.78 148.69 73.00 153.00
C 64.44 150.61 55.17 150.19 47.00 154.00
C 43.85 150.30 39.71 146.34 35.00 145.00
C 39.26 154.10 32.13 164.55 35.08 171.92 C 39.26 178.80 46.84 182.46 54.00 185.00
C 46.40 195.33 41.43 207.85 41.00 221.00
C 40.61 222.57 41.94 225.22 40.00 226.00
C 41.55 232.27 38.21 236.39 35.00 241.00
C 34.48 243.92 38.33 242.73 40.00 243.00
C 58.50 243.67 78.32 241.67 96.00 244.00
C 109.81 243.98 122.98 241.16 135.93 238.07 C 148.49 242.98 162.04 244.42 176.00 244.00
C 185.76 241.68 197.49 243.65 208.00 243.00
C 213.33 243.00 218.67 243.00 224.00 243.00
C 237.33 243.00 250.67 243.00 264.00 243.00
C 266.21 234.28 257.11 230.34 253.00 226.00
C 251.04 224.55 252.44 221.20 252.00 219.00
C 252.36 201.80 246.51 186.00 240.00 171.00
C 249.11 169.97 258.80 165.63 262.69 156.69 C 272.05 145.15 256.73 143.44 249.00 140.00
C 248.69 133.78 243.79 129.57 240.00 125.00
C 244.87 125.51 248.25 129.05 252.00 132.00
C 263.89 118.44 239.26 99.74 229.77 113.77 C 227.12 122.36 217.37 119.33 211.00 123.00
C 198.06 106.58 171.21 130.07 180.22 147.78 C 183.42 161.64 193.98 146.66 199.00 143.00
C 198.12 151.17 201.11 158.48 207.00 164.00
C 204.60 164.71 203.09 166.68 201.00 168.00 Z"/>
</g>
<g fill="#DFDFDF" fill-opacity="1.00" stroke="None">
<path d="
M 178.00 155.00 
C 177.87 145.73 165.90 147.56 162.23 138.77 C 148.99 129.92 126.92 130.39 119.00 146.00
C 112.67 146.00 106.33 146.00 100.00 146.00 C 94.93 146.40 85.44 143.56 88.00 152.00
C 96.33 152.00 104.67 152.00 113.00 152.00
C 110.52 156.56 109.67 161.79 109.00 167.00
C 123.77 168.39 116.23 146.64 129.78 142.78 C 140.45 137.55 155.18 139.60 163.25 148.75 C 173.43 157.11 164.66 173.90 177.00 180.00
C 176.99 175.01 177.03 170.02 176.98 165.02 C 177.12 161.86 172.36 154.60 178.00 155.00 Z"/>
</g>
<g fill="#797979" fill-opacity="1.00" stroke="None">
<path d="
M 193.00 176.00 
C 195.98 173.90 198.79 170.96 201.00 168.00
C 198.02 170.10 195.21 173.04 193.00 176.00 Z"/>
</g>
<g fill="#6F6F6F" fill-opacity="1.00" stroke="None">
<path d="
M 114.00 170.00 
C 116.00 170.00 118.00 170.00 120.00 170.00
C 119.04 168.31 115.03 168.57 114.00 170.00 Z"/>
</g>
<g fill="#7E7E7E" fill-opacity="1.00" stroke="None">
<path d="
M 99.00 194.00 
C 99.00 192.00 99.00 190.00 99.00 188.00
C 97.31 188.96 97.57 192.97 99.00 194.00 Z"/>
</g>
<g fill="#656565" fill-opacity="1.00" stroke="None">
<path d="
M 134.00 196.00 
C 128.90 183.96 109.17 190.38 115.08 202.92 C 118.83 211.43 126.91 221.02 135.77 223.77 C 144.57 219.23 153.99 212.27 156.00 202.00 C 160.38 185.21 141.01 187.26 134.00 196.00 Z"/>
</g>
<g fill="#777877" fill-opacity="1.00" stroke="None">
<path d="
M 253.00 226.00 
C 252.56 223.80 253.96 220.45 252.00 219.00
C 252.44 221.20 251.04 224.55 253.00 226.00 Z"/>
</g>
<g fill="#757575" fill-opacity="1.00" stroke="None">
<path d="
M 40.00 226.00 
C 41.94 225.22 40.61 222.57 41.00 221.00
C 39.06 221.78 40.39 224.43 40.00 226.00 Z"/>
</g>
<g fill="#BFBFBF" fill-opacity="1.00" stroke="None">
<path d="
M 40.00 244.00 
C 39.96 244.00 40.00 243.00 40.00 243.00
C 38.33 242.73 34.48 243.92 35.00 241.00
C 32.17 243.58 38.05 244.65 40.00 244.00 Z"/>
</g>
<g fill="#7E7E7E" fill-opacity="1.00" stroke="None">
<path d="
M 40.00 244.00 
C 58.67 244.00 77.33 244.00 96.00 244.00
C 78.32 241.67 58.50 243.67 40.00 243.00
C 40.00 243.00 39.96 244.00 40.00 244.00 Z"/>
</g>
<g fill="#686868" fill-opacity="1.00" stroke="None">
<path d="
M 176.00 244.00 
C 186.67 244.00 197.33 244.00 208.00 244.00
C 207.96 244.00 208.00 243.00 208.00 243.00
C 197.49 243.65 185.76 241.68 176.00 244.00 Z"/>
</g>
<g fill="#868686" fill-opacity="1.00" stroke="None">
<path d="
M 208.00 244.00 
C 213.18 243.39 219.58 245.25 224.00 243.00
C 218.67 243.00 213.33 243.00 208.00 243.00
C 208.00 243.00 207.96 244.00 208.00 244.00 Z"/>
</g>
</svg>